<svg width="28" height="28" viewBox="0 0 28 28" fill="none" xmlns="http://www.w3.org/2000/svg">
<g clip-path="url(#clip0)">
<path d="M27.823 4.07236C27.6697 3.88079 27.4377 3.76928 27.1923 3.76928H5.69581L5.09469 1.16451C5.01009 0.798054 4.68377 0.538452 4.30768 0.538452H0.80768C0.361648 0.538452 0 0.9001 0 1.34619C0 1.79227 0.361648 2.15386 0.80768 2.15386H3.66516L7.7455 19.8355C7.83005 20.2019 8.15642 20.4615 8.53251 20.4615H24.7154C25.1614 20.4615 25.523 20.0999 25.523 19.6539C25.523 19.2078 25.1614 18.8462 24.7154 18.8462H9.17509L8.55384 16.1539H24.7693C25.1471 16.1539 25.4744 15.892 25.5573 15.5235L27.9803 4.75425C28.0342 4.51483 27.9763 4.26398 27.823 4.07236ZM24.1231 14.5384H8.18103L6.06862 5.38464H26.1827L24.1231 14.5384Z" fill="#1B1B1B"/>
<path d="M11.8461 21.5384C10.2132 21.5384 8.88458 22.867 8.88458 24.5C8.88458 26.133 10.2131 27.4615 11.8461 27.4615C13.4791 27.4615 14.8077 26.133 14.8077 24.5C14.8077 22.867 13.4792 21.5384 11.8461 21.5384ZM11.8461 25.8462C11.1039 25.8462 10.5 25.2423 10.5 24.5C10.5 23.7577 11.1039 23.1539 11.8461 23.1539C12.5884 23.1539 13.1923 23.7577 13.1923 24.5C13.1923 25.2423 12.5884 25.8462 11.8461 25.8462Z" fill="#1B1B1B"/>
<path d="M21.5385 21.5384C19.9055 21.5384 18.5769 22.867 18.5769 24.5C18.5769 26.133 19.9054 27.4615 21.5385 27.4615C23.1714 27.4615 24.5 26.133 24.5 24.5C24.5 22.867 23.1715 21.5384 21.5385 21.5384ZM21.5385 25.8462C20.7962 25.8462 20.1923 25.2423 20.1923 24.5C20.1923 23.7578 20.7962 23.1539 21.5385 23.1539C22.2807 23.1539 22.8846 23.7578 22.8846 24.5C22.8846 25.2423 22.2807 25.8462 21.5385 25.8462Z" fill="#1B1B1B"/>
<path d="M16 7V13" stroke="#1B1B1B" stroke-width="2"/>
<path d="M13 10H19" stroke="#1B1B1B" stroke-width="2"/>
</g>
<defs>
<clipPath id="clip0">
<rect width="28" height="28" fill="white"/>
</clipPath>
</defs>
</svg>
